<mxfile host="app.diagrams.net" agent="Mozilla/5.0 (Windows NT 10.0; Win64; x64) AppleWebKit/537.36 (KHTML, like Gecko) Chrome/138.0.0.0 Safari/537.36" version="28.0.1">
  <diagram name="Page-1" id="MQYRrxLWygz6zaAIeAPN">
    <mxGraphModel dx="3932" dy="2200" grid="1" gridSize="10" guides="1" tooltips="1" connect="1" arrows="1" fold="1" page="1" pageScale="1" pageWidth="827" pageHeight="1169" math="0" shadow="0">
      <root>
        <mxCell id="0" />
        <mxCell id="1" parent="0" />
        <mxCell id="gOqKM7VxM6Snm3rHcN79-1" value="student" style="shape=umlActor;verticalLabelPosition=bottom;verticalAlign=top;html=1;" vertex="1" parent="1">
          <mxGeometry x="-870" y="260" width="30" height="60" as="geometry" />
        </mxCell>
        <mxCell id="gOqKM7VxM6Snm3rHcN79-2" value="Authentification" style="ellipse;whiteSpace=wrap;html=1;" vertex="1" parent="1">
          <mxGeometry x="-160" y="250" width="140" height="70" as="geometry" />
        </mxCell>
        <mxCell id="gOqKM7VxM6Snm3rHcN79-3" value="Publish content" style="ellipse;whiteSpace=wrap;html=1;" vertex="1" parent="1">
          <mxGeometry x="-610" y="20" width="140" height="70" as="geometry" />
        </mxCell>
        <mxCell id="gOqKM7VxM6Snm3rHcN79-4" value="Receive message" style="ellipse;whiteSpace=wrap;html=1;" vertex="1" parent="1">
          <mxGeometry x="-610" y="428" width="140" height="70" as="geometry" />
        </mxCell>
        <mxCell id="gOqKM7VxM6Snm3rHcN79-5" value="Consult publication" style="ellipse;whiteSpace=wrap;html=1;" vertex="1" parent="1">
          <mxGeometry x="-610" y="221" width="140" height="70" as="geometry" />
        </mxCell>
        <mxCell id="gOqKM7VxM6Snm3rHcN79-6" value="Consult Profile" style="ellipse;whiteSpace=wrap;html=1;" vertex="1" parent="1">
          <mxGeometry x="-610" y="330" width="140" height="70" as="geometry" />
        </mxCell>
        <mxCell id="gOqKM7VxM6Snm3rHcN79-7" value="Manage Profile" style="ellipse;whiteSpace=wrap;html=1;" vertex="1" parent="1">
          <mxGeometry x="-610" y="119" width="140" height="70" as="geometry" />
        </mxCell>
        <mxCell id="gOqKM7VxM6Snm3rHcN79-8" value="Send message" style="ellipse;whiteSpace=wrap;html=1;" vertex="1" parent="1">
          <mxGeometry x="-400" y="60" width="140" height="70" as="geometry" />
        </mxCell>
        <mxCell id="gOqKM7VxM6Snm3rHcN79-9" value="Receive notification" style="ellipse;whiteSpace=wrap;html=1;" vertex="1" parent="1">
          <mxGeometry x="-430" y="180" width="140" height="70" as="geometry" />
        </mxCell>
        <mxCell id="gOqKM7VxM6Snm3rHcN79-10" value="Search profile" style="ellipse;whiteSpace=wrap;html=1;" vertex="1" parent="1">
          <mxGeometry x="-390" y="550" width="140" height="70" as="geometry" />
        </mxCell>
        <mxCell id="gOqKM7VxM6Snm3rHcN79-11" value="Create goup" style="ellipse;whiteSpace=wrap;html=1;" vertex="1" parent="1">
          <mxGeometry x="-400" y="386" width="140" height="70" as="geometry" />
        </mxCell>
        <mxCell id="gOqKM7VxM6Snm3rHcN79-12" value="Explore content" style="ellipse;whiteSpace=wrap;html=1;" vertex="1" parent="1">
          <mxGeometry x="-610" y="522" width="140" height="70" as="geometry" />
        </mxCell>
        <mxCell id="gOqKM7VxM6Snm3rHcN79-13" value="Create channel" style="ellipse;whiteSpace=wrap;html=1;" vertex="1" parent="1">
          <mxGeometry x="-400" y="290" width="140" height="70" as="geometry" />
        </mxCell>
        <mxCell id="gOqKM7VxM6Snm3rHcN79-14" value="React with content" style="ellipse;whiteSpace=wrap;html=1;" vertex="1" parent="1">
          <mxGeometry x="-430" y="-100" width="140" height="70" as="geometry" />
        </mxCell>
        <mxCell id="gOqKM7VxM6Snm3rHcN79-15" value="Comment content" style="ellipse;whiteSpace=wrap;html=1;" vertex="1" parent="1">
          <mxGeometry x="-600" y="-130" width="140" height="70" as="geometry" />
        </mxCell>
        <mxCell id="gOqKM7VxM6Snm3rHcN79-16" value="Follow users" style="ellipse;whiteSpace=wrap;html=1;" vertex="1" parent="1">
          <mxGeometry x="-270" y="110" width="140" height="70" as="geometry" />
        </mxCell>
        <mxCell id="gOqKM7VxM6Snm3rHcN79-27" value="" style="endArrow=none;html=1;rounded=0;entryX=0.059;entryY=0.636;entryDx=0;entryDy=0;entryPerimeter=0;" edge="1" parent="1">
          <mxGeometry width="50" height="50" relative="1" as="geometry">
            <mxPoint x="-720" y="170" as="sourcePoint" />
            <mxPoint x="-606.7400000000002" y="63.51999999999998" as="targetPoint" />
            <Array as="points">
              <mxPoint x="-720" y="64" />
            </Array>
          </mxGeometry>
        </mxCell>
        <mxCell id="gOqKM7VxM6Snm3rHcN79-28" value="" style="endArrow=none;html=1;rounded=0;entryX=0;entryY=0.5;entryDx=0;entryDy=0;" edge="1" parent="1" target="gOqKM7VxM6Snm3rHcN79-7">
          <mxGeometry width="50" height="50" relative="1" as="geometry">
            <mxPoint x="-720" y="240" as="sourcePoint" />
            <mxPoint x="-596.7400000000002" y="73.51999999999998" as="targetPoint" />
            <Array as="points">
              <mxPoint x="-720" y="154" />
            </Array>
          </mxGeometry>
        </mxCell>
        <mxCell id="gOqKM7VxM6Snm3rHcN79-29" value="" style="endArrow=none;html=1;rounded=0;entryX=0;entryY=0.5;entryDx=0;entryDy=0;" edge="1" parent="1" target="gOqKM7VxM6Snm3rHcN79-8">
          <mxGeometry width="50" height="50" relative="1" as="geometry">
            <mxPoint x="-720" y="100" as="sourcePoint" />
            <mxPoint x="-400" y="55" as="targetPoint" />
          </mxGeometry>
        </mxCell>
        <mxCell id="gOqKM7VxM6Snm3rHcN79-30" value="" style="endArrow=none;html=1;rounded=0;entryX=0;entryY=0.5;entryDx=0;entryDy=0;" edge="1" parent="1" target="gOqKM7VxM6Snm3rHcN79-9">
          <mxGeometry width="50" height="50" relative="1" as="geometry">
            <mxPoint x="-720" y="215" as="sourcePoint" />
            <mxPoint x="-390" y="105" as="targetPoint" />
          </mxGeometry>
        </mxCell>
        <mxCell id="gOqKM7VxM6Snm3rHcN79-31" value="" style="endArrow=none;html=1;rounded=0;entryX=0;entryY=0.5;entryDx=0;entryDy=0;" edge="1" parent="1">
          <mxGeometry width="50" height="50" relative="1" as="geometry">
            <mxPoint x="-720" y="240" as="sourcePoint" />
            <mxPoint x="-400" y="321" as="targetPoint" />
            <Array as="points">
              <mxPoint x="-720" y="321" />
            </Array>
          </mxGeometry>
        </mxCell>
        <mxCell id="gOqKM7VxM6Snm3rHcN79-32" value="" style="endArrow=none;html=1;rounded=0;entryX=0;entryY=0.5;entryDx=0;entryDy=0;" edge="1" parent="1" target="gOqKM7VxM6Snm3rHcN79-5">
          <mxGeometry width="50" height="50" relative="1" as="geometry">
            <mxPoint x="-720" y="256" as="sourcePoint" />
            <mxPoint x="-390" y="215" as="targetPoint" />
          </mxGeometry>
        </mxCell>
        <mxCell id="gOqKM7VxM6Snm3rHcN79-33" value="" style="endArrow=none;html=1;rounded=0;entryX=0;entryY=0.5;entryDx=0;entryDy=0;" edge="1" parent="1" target="gOqKM7VxM6Snm3rHcN79-11">
          <mxGeometry width="50" height="50" relative="1" as="geometry">
            <mxPoint x="-720" y="320" as="sourcePoint" />
            <mxPoint x="-400" y="421" as="targetPoint" />
            <Array as="points">
              <mxPoint x="-720" y="421" />
            </Array>
          </mxGeometry>
        </mxCell>
        <mxCell id="gOqKM7VxM6Snm3rHcN79-34" value="" style="endArrow=none;html=1;rounded=0;entryX=0;entryY=0.5;entryDx=0;entryDy=0;" edge="1" parent="1" target="gOqKM7VxM6Snm3rHcN79-6">
          <mxGeometry width="50" height="50" relative="1" as="geometry">
            <mxPoint x="-720" y="364.38" as="sourcePoint" />
            <mxPoint x="-610" y="364.38" as="targetPoint" />
          </mxGeometry>
        </mxCell>
        <mxCell id="gOqKM7VxM6Snm3rHcN79-35" value="" style="endArrow=none;html=1;rounded=0;entryX=0;entryY=0.5;entryDx=0;entryDy=0;" edge="1" parent="1" target="gOqKM7VxM6Snm3rHcN79-12">
          <mxGeometry width="50" height="50" relative="1" as="geometry">
            <mxPoint x="-720" y="419" as="sourcePoint" />
            <mxPoint x="-610" y="571" as="targetPoint" />
            <Array as="points">
              <mxPoint x="-720" y="559" />
            </Array>
          </mxGeometry>
        </mxCell>
        <mxCell id="gOqKM7VxM6Snm3rHcN79-36" value="" style="endArrow=none;html=1;rounded=0;entryX=0;entryY=0.5;entryDx=0;entryDy=0;" edge="1" parent="1" target="gOqKM7VxM6Snm3rHcN79-4">
          <mxGeometry width="50" height="50" relative="1" as="geometry">
            <mxPoint x="-720" y="462.38" as="sourcePoint" />
            <mxPoint x="-610" y="463" as="targetPoint" />
          </mxGeometry>
        </mxCell>
        <mxCell id="gOqKM7VxM6Snm3rHcN79-38" value="" style="endArrow=none;html=1;rounded=0;exitX=0.5;exitY=0.5;exitDx=0;exitDy=0;exitPerimeter=0;" edge="1" parent="1" source="gOqKM7VxM6Snm3rHcN79-1">
          <mxGeometry width="50" height="50" relative="1" as="geometry">
            <mxPoint x="-800" y="341" as="sourcePoint" />
            <mxPoint x="-720" y="291" as="targetPoint" />
          </mxGeometry>
        </mxCell>
        <mxCell id="gOqKM7VxM6Snm3rHcN79-40" value="&amp;lt;&amp;lt;extend&amp;gt;&amp;gt;" style="html=1;verticalAlign=bottom;endArrow=open;dashed=1;endSize=8;curved=0;rounded=0;exitX=0.5;exitY=1;exitDx=0;exitDy=0;" edge="1" parent="1" source="gOqKM7VxM6Snm3rHcN79-15" target="gOqKM7VxM6Snm3rHcN79-3">
          <mxGeometry relative="1" as="geometry">
            <mxPoint x="-630" y="-60" as="sourcePoint" />
            <mxPoint x="-710" y="-60" as="targetPoint" />
          </mxGeometry>
        </mxCell>
        <mxCell id="gOqKM7VxM6Snm3rHcN79-41" value="&amp;lt;&amp;lt;extend&amp;gt;&amp;gt;" style="html=1;verticalAlign=bottom;endArrow=open;dashed=1;endSize=8;curved=0;rounded=0;exitX=0.095;exitY=0.832;exitDx=0;exitDy=0;entryX=1;entryY=0;entryDx=0;entryDy=0;exitPerimeter=0;" edge="1" parent="1" source="gOqKM7VxM6Snm3rHcN79-14" target="gOqKM7VxM6Snm3rHcN79-3">
          <mxGeometry relative="1" as="geometry">
            <mxPoint x="-399.49747468305804" y="-20.25126265847075" as="sourcePoint" />
            <mxPoint x="-470" y="55" as="targetPoint" />
          </mxGeometry>
        </mxCell>
        <mxCell id="gOqKM7VxM6Snm3rHcN79-42" value="&amp;lt;&amp;lt;extend&amp;gt;&amp;gt;" style="html=1;verticalAlign=bottom;endArrow=open;dashed=1;endSize=8;curved=0;rounded=0;exitX=0;exitY=0.5;exitDx=0;exitDy=0;entryX=1;entryY=0.5;entryDx=0;entryDy=0;" edge="1" parent="1" source="gOqKM7VxM6Snm3rHcN79-16" target="gOqKM7VxM6Snm3rHcN79-7">
          <mxGeometry relative="1" as="geometry">
            <mxPoint x="-389" y="-10" as="sourcePoint" />
            <mxPoint x="-460" y="65" as="targetPoint" />
          </mxGeometry>
        </mxCell>
        <mxCell id="gOqKM7VxM6Snm3rHcN79-43" value="&amp;lt;&amp;lt;include&amp;gt;&amp;gt;" style="html=1;verticalAlign=bottom;endArrow=open;dashed=1;endSize=8;curved=0;rounded=0;entryX=0.577;entryY=0.046;entryDx=0;entryDy=0;entryPerimeter=0;exitX=0.987;exitY=0.332;exitDx=0;exitDy=0;exitPerimeter=0;" edge="1" parent="1" source="gOqKM7VxM6Snm3rHcN79-3" target="gOqKM7VxM6Snm3rHcN79-2">
          <mxGeometry x="-0.0026" y="-9" relative="1" as="geometry">
            <mxPoint x="-79" as="sourcePoint" />
            <mxPoint x="-460" y="65" as="targetPoint" />
            <Array as="points">
              <mxPoint x="-80" y="40" />
            </Array>
            <mxPoint x="1" as="offset" />
          </mxGeometry>
        </mxCell>
        <mxCell id="gOqKM7VxM6Snm3rHcN79-45" value="" style="endArrow=none;dashed=1;html=1;rounded=0;" edge="1" parent="1">
          <mxGeometry width="50" height="50" relative="1" as="geometry">
            <mxPoint x="-260" y="90" as="sourcePoint" />
            <mxPoint x="-80" y="90" as="targetPoint" />
          </mxGeometry>
        </mxCell>
        <mxCell id="gOqKM7VxM6Snm3rHcN79-46" value="&amp;lt;&amp;lt;include&amp;gt;&amp;gt;" style="edgeLabel;html=1;align=center;verticalAlign=middle;resizable=0;points=[];" vertex="1" connectable="0" parent="gOqKM7VxM6Snm3rHcN79-45">
          <mxGeometry x="-0.0204" y="-3" relative="1" as="geometry">
            <mxPoint x="-1" y="-3" as="offset" />
          </mxGeometry>
        </mxCell>
        <mxCell id="gOqKM7VxM6Snm3rHcN79-53" value="&amp;lt;&amp;lt;include&amp;gt;&amp;gt;" style="endArrow=open;endSize=12;dashed=1;html=1;rounded=0;exitX=0.996;exitY=0.65;exitDx=0;exitDy=0;exitPerimeter=0;entryX=0.286;entryY=0;entryDx=0;entryDy=0;entryPerimeter=0;" edge="1" parent="1" source="gOqKM7VxM6Snm3rHcN79-7" target="gOqKM7VxM6Snm3rHcN79-2">
          <mxGeometry width="160" relative="1" as="geometry">
            <mxPoint x="-310" y="200" as="sourcePoint" />
            <mxPoint x="-150" y="200" as="targetPoint" />
            <Array as="points">
              <mxPoint x="-300" y="170" />
            </Array>
          </mxGeometry>
        </mxCell>
        <mxCell id="gOqKM7VxM6Snm3rHcN79-54" value="&amp;lt;&amp;lt;include&amp;gt;&amp;gt;" style="endArrow=open;endSize=12;dashed=1;html=1;rounded=0;exitX=1;exitY=0.5;exitDx=0;exitDy=0;entryX=0;entryY=0.5;entryDx=0;entryDy=0;" edge="1" parent="1" source="gOqKM7VxM6Snm3rHcN79-5" target="gOqKM7VxM6Snm3rHcN79-2">
          <mxGeometry width="160" relative="1" as="geometry">
            <mxPoint x="-461" y="175" as="sourcePoint" />
            <mxPoint x="-110" y="260" as="targetPoint" />
            <Array as="points">
              <mxPoint x="-290" y="260" />
            </Array>
          </mxGeometry>
        </mxCell>
        <mxCell id="gOqKM7VxM6Snm3rHcN79-55" value="&amp;lt;&amp;lt;include&amp;gt;&amp;gt;" style="endArrow=open;endSize=12;dashed=1;html=1;rounded=0;exitX=1;exitY=0.5;exitDx=0;exitDy=0;entryX=0.086;entryY=0.207;entryDx=0;entryDy=0;entryPerimeter=0;" edge="1" parent="1" source="gOqKM7VxM6Snm3rHcN79-9" target="gOqKM7VxM6Snm3rHcN79-2">
          <mxGeometry width="160" relative="1" as="geometry">
            <mxPoint x="-460" y="266" as="sourcePoint" />
            <mxPoint x="-150" y="295" as="targetPoint" />
            <Array as="points" />
          </mxGeometry>
        </mxCell>
        <mxCell id="gOqKM7VxM6Snm3rHcN79-56" value="&amp;lt;&amp;lt;include&amp;gt;&amp;gt;" style="endArrow=open;endSize=12;dashed=1;html=1;rounded=0;exitX=1;exitY=0.5;exitDx=0;exitDy=0;entryX=0;entryY=0.5;entryDx=0;entryDy=0;" edge="1" parent="1" source="gOqKM7VxM6Snm3rHcN79-13">
          <mxGeometry width="160" relative="1" as="geometry">
            <mxPoint x="-460" y="266" as="sourcePoint" />
            <mxPoint x="-150" y="295" as="targetPoint" />
            <Array as="points" />
          </mxGeometry>
        </mxCell>
        <mxCell id="gOqKM7VxM6Snm3rHcN79-57" value="&amp;lt;&amp;lt;include&amp;gt;&amp;gt;" style="endArrow=open;endSize=12;dashed=1;html=1;rounded=0;exitX=1;exitY=0.5;exitDx=0;exitDy=0;entryX=0.5;entryY=1;entryDx=0;entryDy=0;" edge="1" parent="1" source="gOqKM7VxM6Snm3rHcN79-6" target="gOqKM7VxM6Snm3rHcN79-2">
          <mxGeometry width="160" relative="1" as="geometry">
            <mxPoint x="-250" y="335" as="sourcePoint" />
            <mxPoint x="-140" y="305" as="targetPoint" />
            <Array as="points">
              <mxPoint x="-90" y="365" />
            </Array>
          </mxGeometry>
        </mxCell>
        <mxCell id="gOqKM7VxM6Snm3rHcN79-58" value="" style="endArrow=none;dashed=1;html=1;rounded=0;exitX=1;exitY=0.5;exitDx=0;exitDy=0;" edge="1" parent="1" source="gOqKM7VxM6Snm3rHcN79-11">
          <mxGeometry width="50" height="50" relative="1" as="geometry">
            <mxPoint x="-210" y="428" as="sourcePoint" />
            <mxPoint x="-90" y="360" as="targetPoint" />
            <Array as="points">
              <mxPoint x="-90" y="421" />
            </Array>
          </mxGeometry>
        </mxCell>
        <mxCell id="gOqKM7VxM6Snm3rHcN79-59" value="&amp;lt;&amp;lt;include&amp;gt;&amp;gt;" style="edgeLabel;html=1;align=center;verticalAlign=middle;resizable=0;points=[];" vertex="1" connectable="0" parent="gOqKM7VxM6Snm3rHcN79-58">
          <mxGeometry x="-0.0204" y="-3" relative="1" as="geometry">
            <mxPoint x="-1" y="-3" as="offset" />
          </mxGeometry>
        </mxCell>
        <mxCell id="gOqKM7VxM6Snm3rHcN79-61" value="" style="endArrow=none;dashed=1;html=1;rounded=0;exitX=0.987;exitY=0.736;exitDx=0;exitDy=0;exitPerimeter=0;" edge="1" parent="1" source="gOqKM7VxM6Snm3rHcN79-4">
          <mxGeometry width="50" height="50" relative="1" as="geometry">
            <mxPoint x="-260" y="481" as="sourcePoint" />
            <mxPoint x="-90" y="420" as="targetPoint" />
            <Array as="points">
              <mxPoint x="-90" y="481" />
            </Array>
          </mxGeometry>
        </mxCell>
        <mxCell id="gOqKM7VxM6Snm3rHcN79-62" value="&amp;lt;&amp;lt;include&amp;gt;&amp;gt;" style="edgeLabel;html=1;align=center;verticalAlign=middle;resizable=0;points=[];" vertex="1" connectable="0" parent="gOqKM7VxM6Snm3rHcN79-61">
          <mxGeometry x="-0.0204" y="-3" relative="1" as="geometry">
            <mxPoint x="-1" y="-3" as="offset" />
          </mxGeometry>
        </mxCell>
        <mxCell id="gOqKM7VxM6Snm3rHcN79-63" value="" style="endArrow=none;dashed=1;html=1;rounded=0;exitX=0.934;exitY=0.214;exitDx=0;exitDy=0;exitPerimeter=0;" edge="1" parent="1" source="gOqKM7VxM6Snm3rHcN79-12">
          <mxGeometry width="50" height="50" relative="1" as="geometry">
            <mxPoint x="-462" y="490" as="sourcePoint" />
            <mxPoint x="-90" y="480" as="targetPoint" />
            <Array as="points">
              <mxPoint x="-90" y="537" />
            </Array>
          </mxGeometry>
        </mxCell>
        <mxCell id="gOqKM7VxM6Snm3rHcN79-64" value="&amp;lt;&amp;lt;include&amp;gt;&amp;gt;" style="edgeLabel;html=1;align=center;verticalAlign=middle;resizable=0;points=[];" vertex="1" connectable="0" parent="gOqKM7VxM6Snm3rHcN79-63">
          <mxGeometry x="-0.0204" y="-3" relative="1" as="geometry">
            <mxPoint x="-1" y="-3" as="offset" />
          </mxGeometry>
        </mxCell>
        <mxCell id="gOqKM7VxM6Snm3rHcN79-65" value="&amp;lt;&amp;lt;extend&amp;gt;&amp;gt;" style="html=1;verticalAlign=bottom;endArrow=open;dashed=1;endSize=8;curved=0;rounded=0;exitX=0.041;exitY=0.618;exitDx=0;exitDy=0;exitPerimeter=0;" edge="1" parent="1" source="gOqKM7VxM6Snm3rHcN79-10" target="gOqKM7VxM6Snm3rHcN79-12">
          <mxGeometry relative="1" as="geometry">
            <mxPoint x="-340" y="660" as="sourcePoint" />
            <mxPoint x="-540" y="669" as="targetPoint" />
          </mxGeometry>
        </mxCell>
        <mxCell id="gOqKM7VxM6Snm3rHcN79-73" value="" style="edgeStyle=orthogonalEdgeStyle;rounded=0;orthogonalLoop=1;jettySize=auto;html=1;" edge="1" parent="1" source="gOqKM7VxM6Snm3rHcN79-66" target="gOqKM7VxM6Snm3rHcN79-1">
          <mxGeometry relative="1" as="geometry" />
        </mxCell>
        <mxCell id="gOqKM7VxM6Snm3rHcN79-75" value="" style="edgeStyle=orthogonalEdgeStyle;rounded=0;orthogonalLoop=1;jettySize=auto;html=1;entryX=0.521;entryY=0.742;entryDx=0;entryDy=0;entryPerimeter=0;" edge="1" parent="1" source="gOqKM7VxM6Snm3rHcN79-67" target="gOqKM7VxM6Snm3rHcN79-66">
          <mxGeometry relative="1" as="geometry">
            <mxPoint x="-855" y="512" as="targetPoint" />
          </mxGeometry>
        </mxCell>
        <mxCell id="gOqKM7VxM6Snm3rHcN79-67" value="administrator" style="shape=umlActor;verticalLabelPosition=bottom;verticalAlign=top;html=1;" vertex="1" parent="1">
          <mxGeometry x="-870" y="592" width="30" height="60" as="geometry" />
        </mxCell>
        <mxCell id="gOqKM7VxM6Snm3rHcN79-68" value="Add concierges" style="ellipse;whiteSpace=wrap;html=1;" vertex="1" parent="1">
          <mxGeometry x="-700" y="630" width="140" height="70" as="geometry" />
        </mxCell>
        <mxCell id="gOqKM7VxM6Snm3rHcN79-69" value="Add students" style="ellipse;whiteSpace=wrap;html=1;" vertex="1" parent="1">
          <mxGeometry x="-690" y="750" width="140" height="70" as="geometry" />
        </mxCell>
        <mxCell id="gOqKM7VxM6Snm3rHcN79-71" value="" style="endArrow=none;html=1;rounded=0;exitX=0.5;exitY=0.5;exitDx=0;exitDy=0;exitPerimeter=0;" edge="1" parent="1" source="gOqKM7VxM6Snm3rHcN79-67" target="gOqKM7VxM6Snm3rHcN79-68">
          <mxGeometry width="50" height="50" relative="1" as="geometry">
            <mxPoint x="-720" y="510" as="sourcePoint" />
            <mxPoint x="-670" y="460" as="targetPoint" />
          </mxGeometry>
        </mxCell>
        <mxCell id="gOqKM7VxM6Snm3rHcN79-72" value="" style="endArrow=none;html=1;rounded=0;exitX=0.5;exitY=0.5;exitDx=0;exitDy=0;exitPerimeter=0;entryX=-0.001;entryY=0.41;entryDx=0;entryDy=0;entryPerimeter=0;" edge="1" parent="1" source="gOqKM7VxM6Snm3rHcN79-67" target="gOqKM7VxM6Snm3rHcN79-69">
          <mxGeometry width="50" height="50" relative="1" as="geometry">
            <mxPoint x="-845" y="632" as="sourcePoint" />
            <mxPoint x="-686" y="663" as="targetPoint" />
          </mxGeometry>
        </mxCell>
        <mxCell id="gOqKM7VxM6Snm3rHcN79-66" value="concierge" style="shape=umlActor;verticalLabelPosition=bottom;verticalAlign=top;html=1;" vertex="1" parent="1">
          <mxGeometry x="-870" y="391" width="30" height="60" as="geometry" />
        </mxCell>
        <mxCell id="gOqKM7VxM6Snm3rHcN79-77" value="&amp;lt;&amp;lt;include&amp;gt;&amp;gt;" style="html=1;verticalAlign=bottom;endArrow=open;dashed=1;endSize=8;curved=0;rounded=0;entryX=1;entryY=0.5;entryDx=0;entryDy=0;exitX=1;exitY=0.5;exitDx=0;exitDy=0;" edge="1" parent="1" source="gOqKM7VxM6Snm3rHcN79-68" target="gOqKM7VxM6Snm3rHcN79-2">
          <mxGeometry relative="1" as="geometry">
            <mxPoint x="70" y="700" as="sourcePoint" />
            <mxPoint x="-70" y="500" as="targetPoint" />
            <Array as="points">
              <mxPoint x="130" y="660" />
              <mxPoint x="120" y="285" />
            </Array>
          </mxGeometry>
        </mxCell>
        <mxCell id="gOqKM7VxM6Snm3rHcN79-78" value="" style="endArrow=none;dashed=1;html=1;rounded=0;exitX=1;exitY=0.5;exitDx=0;exitDy=0;" edge="1" parent="1" source="gOqKM7VxM6Snm3rHcN79-69">
          <mxGeometry width="50" height="50" relative="1" as="geometry">
            <mxPoint x="-300" y="771" as="sourcePoint" />
            <mxPoint x="130" y="660" as="targetPoint" />
            <Array as="points">
              <mxPoint x="130" y="780" />
            </Array>
          </mxGeometry>
        </mxCell>
        <mxCell id="gOqKM7VxM6Snm3rHcN79-79" value="&amp;lt;&amp;lt;include&amp;gt;&amp;gt;" style="edgeLabel;html=1;align=center;verticalAlign=middle;resizable=0;points=[];" vertex="1" connectable="0" parent="gOqKM7VxM6Snm3rHcN79-78">
          <mxGeometry x="-0.0204" y="-3" relative="1" as="geometry">
            <mxPoint x="-1" y="-3" as="offset" />
          </mxGeometry>
        </mxCell>
        <mxCell id="gOqKM7VxM6Snm3rHcN79-80" value="" style="rounded=0;whiteSpace=wrap;html=1;fillColor=none;" vertex="1" parent="1">
          <mxGeometry x="-770" y="-240" width="1120" height="1150" as="geometry" />
        </mxCell>
        <mxCell id="gOqKM7VxM6Snm3rHcN79-81" value="&lt;b&gt;&lt;font style=&quot;font-size: 18px;&quot;&gt;Yansnet&amp;nbsp;&lt;/font&gt;&lt;/b&gt;" style="text;html=1;align=center;verticalAlign=middle;whiteSpace=wrap;rounded=0;" vertex="1" parent="1">
          <mxGeometry x="-210" y="-230" width="60" height="30" as="geometry" />
        </mxCell>
      </root>
    </mxGraphModel>
  </diagram>
</mxfile>
